<svg width="24" height="24" viewBox="0 0 24 24" fill="none" xmlns="http://www.w3.org/2000/svg">
<path d="M19.5 0.923065H4.5C2.01563 0.923065 0 2.93869 0 5.42307V17.6538C0 20.1382 2.01563 22.1538 4.5 22.1538H19.5C21.9844 22.1538 24 20.1382 24 17.6538V5.42307C24 2.93869 21.9844 0.923065 19.5 0.923065ZM20.3077 17.5385C20.3077 18.0469 19.893 18.4615 19.3846 18.4615H4.61538C4.10697 18.4615 3.69231 18.0469 3.69231 17.5385V16.6154C3.69231 16.107 4.10697 15.6923 4.61538 15.6923H19.3846C19.893 15.6923 20.3077 16.107 20.3077 16.6154V17.5385ZM20.3077 12C20.3077 12.5084 19.893 12.9231 19.3846 12.9231H4.61538C4.10697 12.9231 3.69231 12.5084 3.69231 12V11.0769C3.69231 10.5685 4.10697 10.1538 4.61538 10.1538H19.3846C19.893 10.1538 20.3077 10.5685 20.3077 11.0769V12ZM20.3077 6.46153C20.3077 6.96994 19.893 7.3846 19.3846 7.3846H4.61538C4.10697 7.3846 3.69231 6.96994 3.69231 6.46153V5.53845C3.69231 5.03004 4.10697 4.61537 4.61538 4.61537H19.3846C19.893 4.61537 20.3077 5.03004 20.3077 5.53845V6.46153Z" fill="#030712"/>
</svg>
